<svg xmlns="http://www.w3.org/2000/svg" viewBox="0 0 1024 1024" width="100%" height="100%">
  <path d="M 797 787 L 797 797 L 856 797 L 856 787 Z M 797 765 L 797 774 L 800 774 L 801 775 L 843 775 L 844 774 L 845 774 L 846 775 L 847 775 L 848 774 L 848 765 Z M 797 743 L 797 752 L 856 752 L 856 743 Z M 678 743 L 678 752 L 722 752 L 723 753 L 721 755 L 720 755 L 718 757 L 717 757 L 714 760 L 713 760 L 709 764 L 708 764 L 705 767 L 704 767 L 702 769 L 701 769 L 698 772 L 697 772 L 694 775 L 693 775 L 690 778 L 689 778 L 686 781 L 685 781 L 681 785 L 680 785 L 678 787 L 678 797 L 740 797 L 740 787 L 696 787 L 695 786 L 696 785 L 697 785 L 700 782 L 701 782 L 704 779 L 705 779 L 708 776 L 709 776 L 712 773 L 713 773 L 716 770 L 717 770 L 720 767 L 721 767 L 724 764 L 725 764 L 728 761 L 729 761 L 732 758 L 733 758 L 736 755 L 737 755 L 740 752 L 740 743 Z M 555 746 L 555 747 L 554 748 L 554 749 L 553 750 L 553 789 L 554 790 L 554 792 L 557 795 L 558 795 L 559 796 L 561 796 L 562 797 L 611 797 L 612 796 L 614 796 L 615 795 L 616 795 L 618 793 L 618 792 L 619 791 L 619 790 L 620 789 L 620 751 L 619 750 L 619 748 L 618 747 L 618 746 L 617 746 L 615 744 L 614 744 L 613 743 L 560 743 L 559 744 L 558 744 L 557 745 L 556 745 Z M 563 754 L 565 752 L 608 752 L 609 753 L 609 754 L 610 755 L 610 785 L 608 787 L 565 787 L 563 785 Z M 428 743 L 428 796 L 429 797 L 437 797 L 438 796 L 438 780 L 440 777 L 462 777 L 481 796 L 482 796 L 483 797 L 495 797 L 495 796 L 477 778 L 478 777 L 486 777 L 487 776 L 488 776 L 490 774 L 491 774 L 491 773 L 493 770 L 493 749 L 492 748 L 492 747 L 489 744 L 488 744 L 487 743 Z M 438 753 L 439 752 L 481 752 L 484 755 L 484 765 L 481 768 L 440 768 L 438 766 Z M 303 743 L 303 747 L 302 748 L 302 752 L 303 753 L 303 757 L 302 758 L 302 786 L 303 787 L 303 791 L 304 792 L 304 793 L 307 796 L 311 796 L 312 797 L 360 797 L 361 796 L 363 796 L 365 794 L 366 794 L 366 793 L 368 790 L 368 787 L 369 786 L 369 743 L 358 743 L 358 786 L 357 787 L 314 787 L 312 784 L 312 743 Z M 172 796 L 172 797 L 183 797 L 184 796 L 184 795 L 186 793 L 186 792 L 187 791 L 187 790 L 189 788 L 189 787 L 190 786 L 202 786 L 203 785 L 218 785 L 219 786 L 224 786 L 225 785 L 231 785 L 233 787 L 233 788 L 234 789 L 234 790 L 235 791 L 235 792 L 237 794 L 237 795 L 239 797 L 250 797 L 250 796 L 249 795 L 249 794 L 248 793 L 248 792 L 246 790 L 246 789 L 244 787 L 244 786 L 243 785 L 243 784 L 240 781 L 240 780 L 239 779 L 239 778 L 237 776 L 237 775 L 235 773 L 235 772 L 234 771 L 234 770 L 232 768 L 232 767 L 230 765 L 230 764 L 228 762 L 228 761 L 227 760 L 227 759 L 225 757 L 225 756 L 223 754 L 223 753 L 222 752 L 222 751 L 220 749 L 220 748 L 218 746 L 218 745 L 217 744 L 217 743 L 205 743 L 204 744 L 204 745 L 203 746 L 203 747 L 201 749 L 201 750 L 199 752 L 199 753 L 198 754 L 198 755 L 196 757 L 196 758 L 194 760 L 194 761 L 193 762 L 193 763 L 191 765 L 191 766 L 189 768 L 189 769 L 188 770 L 188 771 L 186 773 L 186 774 L 185 775 L 185 776 L 183 778 L 183 779 L 181 781 L 181 782 L 180 783 L 180 784 L 178 786 L 178 787 L 176 789 L 176 790 L 175 791 L 175 792 L 173 794 L 173 795 Z M 197 775 L 198 774 L 198 773 L 199 772 L 199 771 L 201 769 L 201 768 L 203 766 L 203 765 L 204 764 L 204 763 L 206 761 L 206 760 L 208 758 L 208 757 L 209 756 L 209 755 L 211 753 L 212 754 L 212 755 L 214 757 L 214 758 L 215 759 L 215 760 L 217 762 L 217 763 L 219 765 L 219 766 L 220 767 L 220 768 L 222 770 L 222 771 L 224 773 L 224 774 L 225 775 L 224 776 L 198 776 Z M 540 614 L 540 616 L 543 616 L 544 617 L 550 617 L 551 616 L 563 616 L 564 617 L 567 617 L 568 616 L 569 617 L 778 617 L 777 613 L 775 611 L 773 606 L 771 604 L 770 601 L 768 599 L 767 596 L 765 594 L 764 591 L 762 589 L 761 586 L 759 584 L 755 576 L 603 576 L 602 575 L 565 575 L 563 579 L 560 582 L 558 587 L 555 590 L 554 593 L 550 598 L 546 606 Z M 581 546 L 581 548 L 600 548 L 601 549 L 608 549 L 609 548 L 612 548 L 613 549 L 738 549 L 737 546 L 735 544 L 734 541 L 732 539 L 731 536 L 729 534 L 729 533 L 728 532 L 728 531 L 726 529 L 726 528 L 725 527 L 724 524 L 722 522 L 721 519 L 719 517 L 718 514 L 716 512 L 716 511 L 714 508 L 606 508 L 605 509 L 605 510 L 603 512 L 603 513 L 601 515 L 601 516 L 599 518 L 598 521 L 595 524 L 594 527 L 590 532 L 589 535 L 587 537 L 587 538 L 585 540 L 585 541 Z M 453 400 L 428 447 L 549 447 L 550 449 L 387 698 L 551 699 L 560 685 L 820 688 L 796 646 L 529 644 L 519 658 L 468 658 L 635 400 Z M 494 165 L 210 698 L 348 698 L 370 657 L 283 657 L 283 653 L 497 257 L 567 373 L 617 373 Z" fill="currentColor" fill-rule="evenodd" />
</svg>